<svg width="217" height="46" viewBox="0 0 217 46" fill="none" xmlns="http://www.w3.org/2000/svg">
<path d="M22.9997 0C35.7026 0 45.9997 10.2971 45.9997 23V39.1C45.9997 40.93 45.2728 42.685 43.9788 43.979C42.6848 45.273 40.9297 46 39.0997 46H24.1497V35.9099C24.1497 33.6076 24.29 31.2225 25.4975 29.2629C26.362 27.8586 27.5185 26.6566 28.8884 25.7385C30.2583 24.8204 31.8096 24.2077 33.4371 23.9419L33.8776 23.8706C34.0592 23.8085 34.2168 23.6912 34.3284 23.5351C34.44 23.379 34.5 23.1919 34.5 23C34.5 22.8081 34.44 22.621 34.3284 22.4649C34.2168 22.3088 34.0592 22.1915 33.8776 22.1294L33.4371 22.0581C31.0591 21.6697 28.8632 20.5441 27.1594 18.8403C25.4556 17.1365 24.3301 14.9406 23.9416 12.5626L23.8703 12.1222C23.8082 11.9406 23.6909 11.7829 23.5348 11.6713C23.3787 11.5597 23.1916 11.4997 22.9997 11.4997C22.8078 11.4997 22.6208 11.5597 22.4647 11.6713C22.3086 11.7829 22.1913 11.9406 22.1292 12.1222L22.0579 12.5626C21.7922 14.1902 21.1795 15.7415 20.2614 17.1114C19.3433 18.4814 18.1412 19.6378 16.7368 20.5022C14.7772 21.7097 12.3921 21.85 10.0898 21.85H0.0273438C0.628794 9.68185 10.6832 0 22.9997 0Z" fill="#5F6FFF"/>
<path d="M0 24.15H10.0901C12.3924 24.15 14.7775 24.2903 16.7371 25.4978C18.2689 26.4417 19.5583 27.7311 20.5022 29.2629C21.7097 31.2225 21.85 33.6076 21.85 35.9099V46H6.9C5.07001 46 3.31496 45.273 2.02096 43.979C0.726962 42.685 0 40.93 0 39.1V24.15ZM46 2.3C46 2.91 45.7577 3.49501 45.3263 3.92635C44.895 4.35768 44.31 4.6 43.7 4.6C43.09 4.6 42.505 4.35768 42.0737 3.92635C41.6423 3.49501 41.4 2.91 41.4 2.3C41.4 1.69 41.6423 1.10499 42.0737 0.673654C42.505 0.242321 43.09 0 43.7 0C44.31 0 44.895 0.242321 45.3263 0.673654C45.7577 1.10499 46 1.69 46 2.3Z" fill="#5F6FFF"/>
<path d="M61.5234 31V13.5391H68.5078C70.4297 13.5391 71.875 13.9609 72.8438 14.8047C73.8125 15.6406 74.2969 16.7109 74.2969 18.0156C74.2969 19.0391 73.9961 19.8711 73.3945 20.5117C72.8008 21.1445 72.0508 21.5625 71.1445 21.7656V21.9414C71.8086 21.9727 72.4297 22.1602 73.0078 22.5039C73.5938 22.8477 74.0664 23.332 74.4258 23.957C74.793 24.5742 74.9766 25.3125 74.9766 26.1719C74.9766 27.0938 74.75 27.9219 74.2969 28.6562C73.8438 29.3828 73.1719 29.957 72.2812 30.3789C71.3906 30.793 70.2891 31 68.9766 31H61.5234ZM67.9453 20.8516C68.6953 20.8516 69.3203 20.6523 69.8203 20.2539C70.3203 19.8555 70.5703 19.3125 70.5703 18.625C70.5703 18 70.3477 17.4961 69.9023 17.1133C69.457 16.7227 68.8281 16.5273 68.0156 16.5273H65.2031V20.8516H67.9453ZM68.2148 27.9883C69.2461 27.9883 69.9961 27.7891 70.4648 27.3906C70.9414 26.9922 71.1797 26.4648 71.1797 25.8086C71.1797 25.0898 70.9219 24.5 70.4062 24.0391C69.8906 23.5703 69.1914 23.3359 68.3086 23.3359H65.2031V27.9883H68.2148ZM83.2266 31.2578C81.9062 31.2578 80.7617 30.9766 79.793 30.4141C78.832 29.8438 78.0898 29.0547 77.5664 28.0469C77.0508 27.0312 76.793 25.8516 76.793 24.5078C76.793 23.1562 77.0508 21.9727 77.5664 20.957C78.0898 19.9414 78.832 19.1523 79.793 18.5898C80.7617 18.0195 81.9062 17.7344 83.2266 17.7344C84.5547 17.7344 85.6992 18.0195 86.6602 18.5898C87.6289 19.1523 88.3711 19.9414 88.8867 20.957C89.4102 21.9727 89.6719 23.1562 89.6719 24.5078C89.6719 25.8516 89.4102 27.0312 88.8867 28.0469C88.3711 29.0547 87.6289 29.8438 86.6602 30.4141C85.6992 30.9766 84.5547 31.2578 83.2266 31.2578ZM80.4844 24.4844C80.4844 25.625 80.7148 26.5664 81.1758 27.3086C81.6367 28.0508 82.3242 28.4219 83.2383 28.4219C84.1445 28.4219 84.8281 28.0508 85.2891 27.3086C85.75 26.5664 85.9805 25.625 85.9805 24.4844C85.9805 23.3438 85.75 22.4062 85.2891 21.6719C84.8281 20.9375 84.1445 20.5703 83.2383 20.5703C82.3242 20.5703 81.6367 20.9375 81.1758 21.6719C80.7148 22.4062 80.4844 23.3438 80.4844 24.4844ZM97.9688 31.2578C96.6484 31.2578 95.5039 30.9766 94.5352 30.4141C93.5742 29.8438 92.832 29.0547 92.3086 28.0469C91.793 27.0312 91.5352 25.8516 91.5352 24.5078C91.5352 23.1562 91.793 21.9727 92.3086 20.957C92.832 19.9414 93.5742 19.1523 94.5352 18.5898C95.5039 18.0195 96.6484 17.7344 97.9688 17.7344C99.2969 17.7344 100.441 18.0195 101.402 18.5898C102.371 19.1523 103.113 19.9414 103.629 20.957C104.152 21.9727 104.414 23.1562 104.414 24.5078C104.414 25.8516 104.152 27.0312 103.629 28.0469C103.113 29.0547 102.371 29.8438 101.402 30.4141C100.441 30.9766 99.2969 31.2578 97.9688 31.2578ZM95.2266 24.4844C95.2266 25.625 95.457 26.5664 95.918 27.3086C96.3789 28.0508 97.0664 28.4219 97.9805 28.4219C98.8867 28.4219 99.5703 28.0508 100.031 27.3086C100.492 26.5664 100.723 25.625 100.723 24.4844C100.723 23.3438 100.492 22.4062 100.031 21.6719C99.5703 20.9375 98.8867 20.5703 97.9805 20.5703C97.0664 20.5703 96.3789 20.9375 95.918 21.6719C95.457 22.4062 95.2266 23.3438 95.2266 24.4844ZM106.805 13.5391H110.438V22.8789H110.637L114.82 17.8984H118.992L114.141 23.582L119.227 31H114.984L111.422 25.7148L110.438 26.8281V31H106.805V13.5391ZM120.844 13.5391H125.391L130.195 25.2695H130.395L135.211 13.5391H139.793V31H136.172V19.6328H136.043L131.508 30.918H129.059L124.57 19.6094H124.418V31H120.844V13.5391ZM144.973 35.9922C144.512 35.9922 144.078 35.957 143.672 35.8867C143.273 35.8164 142.941 35.7305 142.676 35.6289L143.508 32.9219L143.625 32.9453C144.234 33.1172 144.758 33.1562 145.195 33.0625C145.641 32.9688 145.969 32.625 146.18 32.0312L146.402 31.375L141.715 17.8984H145.523L148.242 27.5195H148.383L151.113 17.8984H154.957L149.836 32.5117C149.469 33.5742 148.902 34.418 148.137 35.043C147.379 35.6758 146.324 35.9922 144.973 35.9922ZM163.078 31H156.891V13.5391H163.125C164.883 13.5391 166.395 13.8906 167.66 14.5938C168.926 15.2891 169.898 16.2891 170.578 17.5938C171.266 18.8906 171.609 20.4453 171.609 22.2578C171.609 24.0781 171.266 25.6406 170.578 26.9453C169.898 28.25 168.922 29.2539 167.648 29.957C166.375 30.6523 164.852 31 163.078 31ZM160.57 27.8359H162.914C164.562 27.8359 165.812 27.3945 166.664 26.5117C167.516 25.6289 167.941 24.2109 167.941 22.2578C167.941 20.3203 167.516 18.9102 166.664 18.0273C165.812 17.1445 164.562 16.7031 162.914 16.7031H160.57V27.8359ZM180.188 31.2578C178.867 31.2578 177.723 30.9766 176.754 30.4141C175.793 29.8438 175.051 29.0547 174.527 28.0469C174.012 27.0312 173.754 25.8516 173.754 24.5078C173.754 23.1562 174.012 21.9727 174.527 20.957C175.051 19.9414 175.793 19.1523 176.754 18.5898C177.723 18.0195 178.867 17.7344 180.188 17.7344C181.516 17.7344 182.66 18.0195 183.621 18.5898C184.59 19.1523 185.332 19.9414 185.848 20.957C186.371 21.9727 186.633 23.1562 186.633 24.5078C186.633 25.8516 186.371 27.0312 185.848 28.0469C185.332 29.0547 184.59 29.8438 183.621 30.4141C182.66 30.9766 181.516 31.2578 180.188 31.2578ZM177.445 24.4844C177.445 25.625 177.676 26.5664 178.137 27.3086C178.598 28.0508 179.285 28.4219 180.199 28.4219C181.105 28.4219 181.789 28.0508 182.25 27.3086C182.711 26.5664 182.941 25.625 182.941 24.4844C182.941 23.3438 182.711 22.4062 182.25 21.6719C181.789 20.9375 181.105 20.5703 180.199 20.5703C179.285 20.5703 178.598 20.9375 178.137 21.6719C177.676 22.4062 177.445 23.3438 177.445 24.4844ZM194.93 31.2578C193.586 31.2578 192.434 30.9727 191.473 30.4023C190.512 29.832 189.773 29.0391 189.258 28.0234C188.75 27.0078 188.496 25.8359 188.496 24.5078C188.496 23.1641 188.754 21.9844 189.27 20.9688C189.793 19.9531 190.535 19.1602 191.496 18.5898C192.457 18.0195 193.598 17.7344 194.918 17.7344C196.059 17.7344 197.059 17.9414 197.918 18.3555C198.777 18.7695 199.457 19.3516 199.957 20.1016C200.457 20.8516 200.73 21.7344 200.777 22.75H197.355C197.254 22.1016 197 21.5781 196.594 21.1797C196.188 20.7734 195.648 20.5703 194.977 20.5703C194.133 20.5703 193.457 20.9102 192.949 21.5898C192.441 22.2617 192.188 23.2188 192.188 24.4609C192.188 25.7109 192.438 26.6836 192.938 27.3789C193.445 28.0742 194.125 28.4219 194.977 28.4219C195.602 28.4219 196.129 28.2266 196.559 27.8359C196.988 27.4453 197.254 26.8984 197.355 26.1953H200.777C200.723 27.1953 200.453 28.0781 199.969 28.8438C199.484 29.6016 198.812 30.1953 197.953 30.625C197.102 31.0469 196.094 31.2578 194.93 31.2578Z" fill="#4B5DFF"/>
</svg>
